<?xml version="1.0" encoding="UTF-8"?>
<svg id="Camada_2" data-name="Camada 2" xmlns="http://www.w3.org/2000/svg" viewBox="0 0 1566.6 162.86">
  <defs>
    <style>
      .cls-1 {
        fill: #fff;
        stroke-width: 0px;
      }
    </style>
  </defs>
  <g id="Camada_1-2" data-name="Camada 1">
    <g>
      <path class="cls-1" d="m1561.91,158.61c-2.45,1.43-4.48,1.82-5.71,2.14-1.25.27-1.85.39-2.16.55-.63.29.02.57-.91.69,5.24-.12,8.49-1.95,9.75-2.95,1.38-1.06,1.45-1.52,1.28-1.54-.34-.02-2.49,1.16-2.25,1.1Z"/>
      <path class="cls-1" d="m1554.42,1.79c2.15.19,2.7.11,2.41-.13-.3-.23-1.3-.7-2.89-.87-2.92-.47-6.58-.58-.46-.79-4.53-.02-9.02.08-13.26.15-2.11.05-4.18.09-6.22.14l-3,.08-1.67.09c-3.95.28-7.65.54-11.17.79,3.73-.15,7.58-.21,11.78-.15,3.71.05,7.58.11,11.67.16,4.11.16,8.89,0,12.82.54Z"/>
      <path class="cls-1" d="m1506.37,2.03c3.72-.17,7.58-.47,11.78-.79-3.96.16-7.86.39-11.78.79Z"/>
      <path class="cls-1" d="m1530.49,2.99c-6.08.45-12.74.49-20.25.56,4.03.08,8.13.15,12.2.23,4.84.02,9.66.05,14.35.08,1.88-.32,8.02-.9-6.3-.86Z"/>
      <path class="cls-1" d="m1566.6,10.23c-.26-.35-.56-.81-.83-1.11.38.71.7,1.29.83,1.11Z"/>
      <path class="cls-1" d="m1436.24,3.54c.41.06.77.12,1.18.19.09-.06.16-.12.28-.18h-1.46Z"/>
      <path class="cls-1" d="m1538.82,4.04c4.6.15,8.54-.02,11.6.12,1.51.07,2.73.24,3.95.35,1.06.16,2.09.31,3.1.47-2.41-.49-4.89-1.16-8.81-1.16-3.83.01-7.78.03-11.87.04-.85.14-1.03.24,2.03.19Z"/>
      <path class="cls-1" d="m1485.73,2.51c3.18.17,6.74.36,10.48.56-3.08-.33-9.37-.83-10.48-.56Z"/>
      <path class="cls-1" d="m1564.74,7.51c.24.21.46.39.71.61-1.15-1.48-1.15-1.15-.71-.61Z"/>
      <path class="cls-1" d="m1564.74,7.51c-1.26-1.01-2.52-1.46-3.6-1.77-1.23-.29-2.44-.54-3.66-.77,1.62.48,3.25.81,4.53,1.36,1.4.59,2.77,1.61,3.76,2.79-.36-.63-.76-1.21-1.03-1.61Z"/>
      <path class="cls-1" d="m1413.83,10.13c1.07-.95,16.99-1.83,30.73-.81,13.52-.71,4.68-3.84-7.12-5.59-.42.41-.42.8-14.33,1.36,4.87.52,30.88,1.21,19.14,2.07-18.43.49-15.11-.34-24.07-.84,7.62,1.19-23.45,1.72-19.44,3.47l16.16-.61c.29.27-5.56.71-1.07.96Z"/>
      <path class="cls-1" d="m1463.95,3.82l5.72-.12c-6.53-.17-11.2-.55-19.8-1.29-9.53.47-11.5.82-12.16,1.13l28.19.13-1.95.15Z"/>
      <path class="cls-1" d="m1495.38,3.7c-4.47,1.04-18.22,1.47-9.8,2.59,16.8-.07,11.77-.86,21.81-1.31-27.12.25,7.79-.58-11.8-1.16,5.33-.17,10.12-.23,14.65-.27-4.87-.16-9.58-.32-14.02-.47.24.02.42.04.62.06h.13s-.03,0-.03,0c1.17.13,1.55.21.24.13-.09,0-.42.01-.56.02-.18.14-.68.27-1.22.39-7.85-.21-1.23-.27,1.22-.39.09-.05.31-.1.33-.15,0,0-.06,0-.1-.01l-27.16.57c5.74.15,12.94.12,25.7,0Z"/>
      <path class="cls-1" d="m1560.76,8.91s-1.17-.86-3.11-1.24c-1.93-.32-4.57-.62-7.72-.9-3.11-.31-7.1-.11-9.78-.09-2.73.05-4.55.08-4.55.08,0,0,3.42.23,6.84.45,3.36.19,6.01.61,6.01.61l.16-.52c6.59.68,8.6.73,9.95,1.18,1.2.37,1.3.11,2.2.44Z"/>
      <polygon class="cls-1" points="1433.66 3.02 1436.66 1.93 1423.59 3.47 1433.66 3.02"/>
      <polygon class="cls-1" points="1404.26 3.15 1405.35 2.2 1397.59 2.78 1404.26 3.15"/>
      <path class="cls-1" d="m682.34,3.26c-9.68-.89-20.5-2.26-19.33-1.2l2.97,1.04c6.76-.18,11.94-.07,16.35.15Z"/>
      <path class="cls-1" d="m187.91,9.48c.92.11,1.88.21,2.83.32,2.35-.36,4.56-.7,6.54-1-2.82.21-6.02.44-9.37.68Z"/>
      <path class="cls-1" d="m181.08,13.79l-12.76-.67c2.87.24,6.98.46,12.76.67Z"/>
      <path class="cls-1" d="m241.61,148.25l7.75-1.06c-12.13,0-6.79.54-7.75,1.06Z"/>
      <path class="cls-1" d="m1103.21,3.54c-8.35-.41-15-.58-20.85-.63,10.07.6,18.19,1.49,20.85.63Z"/>
      <path class="cls-1" d="m1058.23,2.91c1.48.08,2.92.16,4.42.24,6.11-.17,12.26-.32,19.71-.25-7.43-.45-15.94-.72-24.13,0Z"/>
      <path class="cls-1" d="m1194.73,149.11c.7.04,1.52.09,2.15.12.21-.14-.75-.15-2.15-.12Z"/>
      <path class="cls-1" d="m1472.39,159.62c-2.74.02-7.2.05-11.4.08,2.05.07,5.49.06,11.4-.08Z"/>
      <path class="cls-1" d="m1285.99,2.7c6.24-.07.99-.11,0,0h0Z"/>
      <path class="cls-1" d="m1316.31,6.82c-1.33.12-2.33.27-2.49.5.51-.25,1.38-.41,2.49-.5Z"/>
      <path class="cls-1" d="m996.13,9.4c-.18,0-.33,0-.54,0,1.85.21,1.53.17.54,0Z"/>
      <path class="cls-1" d="m1295.37,3.17c-2.34-.13-5.04-.24-7.97-.31,1.3.05,3.72.15,7.97.31Z"/>
      <path class="cls-1" d="m1294.11,2.68c2.15.04,3.84.07,5.45.1.78-.18.09-.28-5.45-.1Z"/>
      <path class="cls-1" d="m1277.31,2.75c3.56-.01,6.89.03,10.1.11-1.23-.07-1.73-.13-1.41-.16-1.83.01-4.42.03-8.69.06Z"/>
      <path class="cls-1" d="m684.05,151.9c.41.03.88.07,1.34.1,6.28-.44,3.52-.36-1.34-.1Z"/>
      <path class="cls-1" d="m520.08,14.08c.29-.02.45-.03.71-.05-.29,0-.66-.02-.92-.04l.21.09Z"/>
      <path class="cls-1" d="m497.69,14.86c9.53-1.3,14.95-1.14,22.18-.86l-7.41-3-14.77,3.87Z"/>
      <path class="cls-1" d="m21.47,149.42-12.47,3.58c1.74,3.59,2.62,7.51,8.26,7.96,2.81.27,6.15.13,9.02.08,2.15-.06,4.32-.12,6.46-.19,17.13-.52,32.85-1.09,32.72.75l36.7-.2-.96.37c23.46.24,31.75-.64,40-1.52,5.42.25,1.47.59,1.01.78,34.28.74,37.69.59,66.43-1.24l2.99,1.19c7.79-.69,49.55,1.87,83.18.48-.33.13-1.03.36-3.69.53,37.83-1.4,90.56,3.3,104.41-1.03l24.96-1.07c-32.3-.34,4.81-1.88-8.47-2.6,12.7-.25,32.83,1.31,17.23,1.53l-2.44-.22c-5.73,2.26,40.13.8,39.26,2.34,63.55-.11,125.48,1.14,185,1.23l-6.86-1.76,20.76.1c5.45.41,7.31,1.37-7.5,1.3,7.79.99,24.84-.84,25.26-1.21,29,.71-11.33,2.05-2.44,2.09l12.08-.13-2.72-.21c9.79-.72,10.66-1.48,28.46-1.39,11.27.35,5.78,1.09,10.21,1.15-.03.12,1.47.18,6.8.05l26.16.15-10.46-1.39c11.59-.68,24.6.07,12.52-1.5,17.72,2.42,97.58.87,108.45,1.62,16.24-1.01,32.26-.99,52.12-.87-4.93-.29-7.89-1.85,9.24-1.66-6.26,3.22,31.36,1.4,45.2,3.71-12.37-1.54,48.68-.38,29.28-2.56,14.29.26.87,1.21,11.71,1.96,34.01-1.25,74.96.81,117,.39.66-.42-6.39-1.07,2.63-1.7l22.19,2.11c8.3-.21,7.65-2.44,22.81-.97-2.14-.36-5.34-.89.23-1.03,82.36,2.06,168.3-1.69,251.93,2.18-11.33-.82-3.78-.9,4.87-.93-5.62-.2.13-1.04-.98-1.61l35.01,1.59c6.38-1.59,37.54-.11,41.2-1.63l-11.09.27c14.75-1.79-20.63-3.99-18.48-6.29-16.51,2.04-43.54-3.02-70.63-.1-5.98-.47,5.1-.74,1.9-1.27-6.87.98-15.16,1.19-30.53.75l1.73-.24c-43.17.24-61.69-.73-110.19-1.38l3.59,1.14c-10.42-.15-12.62-.51-17.5-.79-11.96,1.72,29.27.1,18.37,2-13.83-2.31-73.5-.03-82.85-2.67-16.04-.01,4.7,1.32-11.33,1.3l-4.25-.71-4.05.92c-10.51-.15-15.81-1.04-16.21-1.64,2.55.07,7.25-.17,9.98-.22-13.63-.84-38.44.29-43.12.01l15.41.44c-43.76.67-97.19-.27-139.47,1.18l3.21.54c-32.28.99-25.86-.59-61.3-.13l1.29-.13c-7.1.53-16.57.8-26.26.74,8.95-.63-16.84-1.22-5.1-1.92-35.01,1.07-17.32.84-40.44,2.83l-5.34-.89c-7.88.81-8.54,1.23-26.24,1.46,14.52-.76-11.3-1.36,4.97-2.37-37.15-1.94-55.16,1.96-72.2-.88-17.06,2.46,32.15,1.37,22.6,1.9,8,.81-14.08,1.84-25.74,1.59-11.87-.06-20.18-3.15-50.03-3.11,2.97.01,3.18-.17,6.13-.16-11.17-.63-21.89.85-35.59-.17-7.68,1.49-17.79-.09-20.01,1.82l27.39-.44c-15.52.49-30.08,2.72-55.65,1.64,1.99-.38,9.6-.89,14.83-1.17-7.48-.56-14.4.37-22.15-.2,2.21-1.9,33.28-.41,49.91-1.86-8.02-.8-31.46,1.38-23.1-.68-12.01,2.62-29.41-.33-49.63,1.67l1.33-1.14c-3.2.18-9.83.72-15.71.69l10.66-1.48c-16.36,1.26-31.55-1.1-47.25-.42,32.87-.03,7.38,1.37,21.27,2.2-40.54,1.53-23.32-2.98-68.7-2.43,6.14-.16,23.07.69,13.46,1.21-8.64-.24-20.05-.67-25.36-1.27-30.07.24,4.62,1.17-8.19,1.87-10.24-1.39-14.77.57-27.95,1.01l-.09-1.16c-34.27-.74-9.09,2.42-39.94,1.52l13.04-1.61-16.08.41,3.32-1.32c-17.5.98-22.95.73-40.09.36,3.98.82-2.24,2.1-17.42,2.14-10.35-.69,5.8-1.1-15.72-.94,4.86-.73,10.18-1.63,19.54-.57.96-.38,4.79-.73,5.78-1.1-11.15-.79-28.02-.18-35.8-.17,3,.04,6.58.11,8.42.27l-31.19,1.6c-4.91-.44-1.01-.78,2.84-1.13-6.32.12-10.69.66-19.98.76,2.4-.94,1.83-1.91,14.97-2.36l-29.72,1.04c-1.99-.41-15.25-1.12-11.39-1.47-16.48-.55-40.41,1.82-62.26,1.09-1.13.18-3.41.36-8.05.49-20.53-.21-38.71-1.37-63.04-.08l-13.8-1.69c-19.06.38,18.69,2.13-13.04,2.76-22.46.54-8.39-1.44-16.26-1.91-11.17.85-30.59,2.58-51.23,1.21,6.81-.34,12.17-.09,18.55-.21l-15.73-.94c18.98-1.54,32.71-1.01,17.95-2.32-1.11,1.63-16.4,1.71-31.67,1.8-3.82.03-7.63.06-11.23.09-1.8.03-3.54.06-5.2.09-.75.02-1.48.04-2.19.06l-.52.08c-1.38.36-3.03.4-4.31.88,0,0-12.08,2.96-12.13,2.22M0,13c1.25-.59,6.96,2.79,7,3,1.73-.87,16.01.06,16.23-.41.14-.19.4-.37,1.26-.54.51-.08.84-.16,1.99-.23,1.31-.05,2.92-.11,4.92-.18,4.33-1.69,33,2.47,52.89.55,4.9.44-2.37.94-.87,1.54,27.29-1.26,23.4-.92,45.81-2.61l19.09,1.01c-14.03-1.15,3.9-2.52,19.6-3.64-4.98-.56-9.22-1.04-12.08-1.28l25.06-.83c3.02.25.5.78-3.6,1.42,1.7-.13,3.32-.26,4.59-.37,8.96.57,4.31,1.46-2.1,2.31-3.04-.32-6.07-.64-9.02-.95-6.19.93-11.97,1.96-10.69,2.87,1.63-.18,4.77-.33,8.21-.41-1.62.25-2.65.48-1.9.63.85.16,3.46-.18,7.56-.57l5.7,1.71,1.38-.68,32.78,1.07c23.45-1.72,43.85-4.26,81.07-4.97-9.24,1.25-1.99,2.05-2.49,3.54-10.16-1.58-28.83.67-48.12.35,10.06.16,7.85.87,5.29,1.12l34.41-1.43c-.78,1.21,7.31.91,16.29,1.42-6.79-2.41,25.64-1.6,39.64-2.34.87.81-2.49,1.63-19.56,1.44,18.84,1.81,24.35-2.82,42.85-1.29-4.17.02-6.42-.11-8.07.31,9.74-.72,33.55-.15,27.96.55l-4.16.02c27.69.28,84.28.02,88.41-2.03.28.26-3.63,2.46-5.3,2.88l49.4-6.87c-4.35,1.75,12.36,5.93-10.6,6.92,6.59.25,14.75.54,28.64-.08-4.5-.25-11.21-2.54-5.07-2.69,16.86,1.95,11.71,1.04,32.5,2.71-6.74-.37.75-3.13,11.4-3.04-1.67.41.89,2.71-3.01,3l26.52-2.7c-6.62.49-1.17,2.29,4.77,3.05-2.75-.53,22.92.05,29.99-.22l-11.24-.62c29.93.41,29.57-3.8,59.27-3.65-3.59.56-8.88,3.43,6.22,3.77,6.92-1.38,30.65-6.65,56.93-7.72l5.04.79,20.16-.9c-12.55,2.08-47.78,6.46-67.02,8.16,11.2.62,3.12.93,19.9.86,5.92.74-9.14,1.12-14.08,1.17l39.06.48c-1.74-1.61,29.87-1.62,28.38-2.96l-42.42,1.67c-1.72-1.61,24.53-4.58,52.2-4.3,7.04.64-5.27,2.87-4.69,3.41,3.59-.56,26.26-1.06,28.81-.67l-11.74.86c15.41.61,25.14-2.14,43.66-.6,6.39.1,19.08,2.08,20.18,1.12-10.42-1.84-12.46-7.54-5.51-8.92,2.24.12,33.55,1.76,40.85,2.67,10.52,1.45-15.79,3.44-6.84,4.68.39-.44,6.2-.98,8.62-1.16,6.71.37-2.78,1.36,11.8,1.17,2.44-1.64,29.66.14,6.89-1.38,14.27-.47,15.16.34,31.91.26-5.34-1.06,15.04-3.6,29.33-4.07-.84.42,2.37.96,3.92,1.21,29.24.15,44.93.89,72.2.9,2.51.4,15.67.87,10.06,1.58,3.92-.29,7.52-.85,15.93-.88,16.28,1.42-18.75.22-6.34,1.92,1.06-.95,21.75-1.31,33.73-1.91-3.68-1.47-27.67-.28-39.67.31-.06-2.03,20.83-4.15,49.32-5.09,22.65-.5,9.82,1.31,13.75,1.02,42.54.36,36.24-3.54,71.57-2.07,14.02,1.29.63,2.57,3.74,3.5-18.45.49-28.33-.82-40.83-.77l15.39.61c-5.87.43-18.19.75-24.89.38,11.75,1.16,71.87.22,104.7,1.29,5.83-.43,15.9-.88,11.13-1.4l-10.38.18c-9.54-1.04,19.55-1.44,6.4-1.93,13.93-.73,29.55-1.88,49.16-1.29l3.69,1.47c-.42-.43-12.82-.88-18.33-.43,8.17-.65,30.07,1.99,39.03.07l-13.75-1.02c13.98-.74,31.27-2.3,48.66-1.84-7.91-1.46-4.01.17-16.36-1.54,10.71,2.12-44.46-.09-27.26,2.14-12.68-1.97-21.94-.84-38.5-2.52.51.49,5.87.93-8.72.69-.66.14-2.21.32-3.2.43-.44-.01-.6-.02-.98-.04.29.02.51.04.81.06-.63.07-.69.09.3.02,3.48.21,6.29.47,7.43.74-7.25,1.11-30.45,1.08-38.3,1.66-8.66-.23,3.62-.56-1.1-1.08l-11.72.86c-1.16-1.08-23-1.79-2.61-2.43l-18.36-.05c-10.81-.61-25.68-.85-34.84-.39-8.66-.24-21.87,1.19-14.33.35l-28.79.67-.26-.27c-28.41-.13-58.48,1.79-90.96-.16-9.56.27-19.44.61-35.45.3l-3.12-.93c-12.27.33-36.87-.93-42.15.04-13.25-2.51-59.59-.55-81.19-.99l-.81,1.22c-14.86-.07-29.11.28-47.57.77l1.13,1.08c-15.91.88-40.9-.76-66.06-.66,1.71-.41,8.09-.3,12.61-.05-30.06-2.43-63.43,1.77-90.69,0-6.79.39-11.71.26-16.48-.01.63,0,1.2-.02,1.68-.06-.7,0-1.73,0-2.79-.01-3-.18-6.1-.37-9.44-.57,2.84.26,5.57.48,7.94.58-5.24.02-13.18.16-20.97.43l-3.32-1.16c-.63,0-1.14.02-1.8.03-7.65-.43-6.14.55-2.07,1.42-3.92.19-7.51.42-10.3.7-6.21-1.87-20.43.63-28.91-1.36-5.25.97-39.16.73-43.31,2.77-.26-.26-2.56-.39,1.65-.41-8.69-.24-17.36-.47-25.15.11l-3.68-1.47-18.96,1.98c-11.52-.89-16.29-1.42-4.86-2.55-27.62,1.74-22.41.65-45.9,2.38l1.15-.95c-8.4.04-21.82,1.31-26.88.52-18.78-1.81-92.93-.25-141.14-1.93,9.35,2.8-22.41-1.25-24.32.91-2.81-.66-9.53-1.04-1.72-1.61-24.61.65-36.97-1.05-53.95.78-2.82-.67,5.27-.97,2.76-1.36-1.97.14-7.82.58-10.38.18-2.5-.39,3.6-.56,7.5-.85-25.13.11-27.67,2.15-29.5,4.07-12.74-.91-19.09-.78-28.29.48-4.43-.62-11.83-1.28,3.79-1.51-8.79-.09-53.67-.92-54.56.61-2.76-.39-12.28-.12-14.59.06-19.71-.09-21.45-.23-40.81-.09l5.37.25c-7.72,1.85-15.93.41-31.86.63l.55-.19c-4.73-.17-8.73-.28-11.69.59-3.02.84-12.93,2.28-14.15,3.67m202.51.71c-3.39.38-8.62.19-14.53-.24,4.29-.1,9.14-.05,14.53.24Zm995.15-8.06c-.19.02-.33.04-.49.06-10.16-.45-6.56-.27.49-.06Zm21.09.5c2.12-.16,1.97-.32,1.08-.49-1.47.29-6.21.31-11.6.23,1.5.31,4.23.51,10.53.25Zm-488.12,155.55l-4.1-.3c9.26-.34,6.67-.03,4.1.3Z"/>
      <path class="cls-1" d="m182,13.29c-1.29-.2-1.65-.41-1.95-.63-1.78.2-1.82.42,1.95.63Z"/>
      <path class="cls-1" d="m240.18,148.44h.71c.39-.05.6-.12.72-.2l-1.43.2Z"/>
      <path class="cls-1" d="m912.02,13.97c-4.34-.17-6.76-.38-8.37-.6-.24.28,1.73.52,8.37.6Z"/>
      <path class="cls-1" d="m1350.52,2.18l-13.51.3c6.54-.06,8.87.2,12.17.38-.29-.27-2.87-.67,1.35-.68Z"/>
      <path class="cls-1" d="m1467.79,9.34c1.97-.14,4.19-.01,6.13-.16l-.54-.54c-8.41.03-14.28.47-5.59.7Z"/>
      <path class="cls-1" d="m1363.03,6.02c1.07.97,9.54.64,19.01.46h-1.67c2.79-1.36-7.3-.91-17.33-.46Z"/>
      <path class="cls-1" d="m1384.23,6.46c2.92-.05,5.89-.07,8.75-.02,1.11-.55-3.55-.12-8.75.02Z"/>
      <path class="cls-1" d="m1265.5,3.5c4.48.25,2.82-1.25,5.35-.85,5.01-1.24-29.92,1.5-5.35.85Z"/>
      <polygon class="cls-1" points="1370.69 9.24 1367.29 8.03 1362 9 1370.69 9.24"/>
      <path class="cls-1" d="m1295.96,8.35l15.12.33c-.23-.2,1.69-.32,4.05-.41-9.32-.04-19.53-.28-19.18.08Z"/>
      <path class="cls-1" d="m1315.14,8.28c4.85.02,9.47,0,12.17-.2-2.62.01-8.28.05-12.17.2Z"/>
      <polygon class="cls-1" points="1350.02 9.6 1345.54 9.35 1334.87 9.26 1350.02 9.6"/>
      <path class="cls-1" d="m1133.4,8.12l-16.5.35c-1.68.41,2.82.66,8.96.5,3.95-.28,10.07-.45,7.54-.85Z"/>
      <path class="cls-1" d="m1183.32,11.41c-4.47-.25-4.77-.52-7.28-.92l-.5,1.49,7.78-.58Z"/>
      <path class="cls-1" d="m1135.18,11.76c-1.64.41-23.95,1.19-3.03,1.09,1.67-.41,18.2-.75,3.03-1.09Z"/>
      <polygon class="cls-1" points="886.51 9.88 890.7 9.86 890.1 7.41 886.51 9.88"/>
      <path class="cls-1" d="m667.33,15.73c19.56.59,4.65-1.51,22.31-.78,4.59-.58-14.44-.6-9.74-1.09-11.8.61-18,.26-12.58,1.87Z"/>
      <path class="cls-1" d="m679.91,13.85c1.88-.12,3.88-.24,6.02-.37-3.42.15-5.03.27-6.02.37Z"/>
      <polygon class="cls-1" points="1518.47 160.93 1531.04 161.44 1522.93 160.62 1518.47 160.93"/>
      <path class="cls-1" d="m1542.61,159.12l2.96,1.56,7.55-1.41c-2.84.07-8.35.21-10.51-.14Z"/>
      <polygon class="cls-1" points="54.47 139.96 57.07 138.91 51.37 139.68 54.47 139.96"/>
      <path class="cls-1" d="m137.81,146.03c-5.84.06-12.71.13-18.58.2,12.74-.25,20.17,1.56,18.58-.2Z"/>
    </g>
  </g>
</svg>